<svg height="447pt" viewBox="0 -24 447.04 447" width="447pt" xmlns="http://www.w3.org/2000/svg" xmlns:xlink="http://www.w3.org/1999/xlink"><linearGradient id="linear0" gradientUnits="userSpaceOnUse" x1="82.644" x2="364.396" y1="-44.736" y2="443.272"><stop offset="0" stop-color="#f9e181"/><stop offset="1" stop-color="#45988e"/></linearGradient><path d="m7 183.421875h433.039062c3.867188 0 7-3.136719 7-7v-169.402344c0-3.867187-3.132812-6.9999998-7-6.9999998h-22.199218v13.9999998h15.199218v38.949219c-8.609374-1.957031-17.042968-4.644531-25.199218-8.027344-17.710938-6.664062-39.730469-14.972656-65.402344-13.804687-21.648438.972656-46 11.234375-71.820312 22.101562-33.203126 14-67.476563 28.480469-101.960938 26.871094-6.539062-.316406-13.042969-1.175781-19.441406-2.570313l-2.957032 13.683594c7.15625 1.5625 14.433594 2.519532 21.753907 2.871094 1.914062.085938 3.828125.128906 5.746093.128906 35.597657 0 70.9375-14.875 102.292969-28.082031 24.617188-10.367187 47.871094-20.160156 67.015625-21.019531 22.800782-.996094 42.46875 6.398437 59.84375 12.917968 9.703125 4.078126 19.808594 7.113282 30.148438 9.058594v30.070313c-65.355469 14.347656-218.796875-.546875-220.398438-.703125l-1.375 13.929687c4.371094.433594 72.621094 7.0625 137.722656 7.0625 31.199219 0 61.675782-1.527343 84.039063-6v13.847657c-21.492187 3.097656-99.386719 12.628906-172.546875.433593-90.359375-15.058593-163.765625-19.976562-246.492188 1.484375v-46.851562c27.957032 18 61.714844 21.882812 89.015626 23.097656l.625-14c-28.078126-1.253906-63.34375-5.46875-89.640626-26.402344v-21.902344c24.144532.738282 46 12.140626 69.027344 24.171876 12.527344 6.835937 25.425782 12.972656 38.632813 18.375l5.078125-13.046876c-12.722656-5.222656-25.152344-11.144531-37.226563-17.734374-23.597656-12.332032-47.910156-25.003907-75.515625-25.761719v-13.148438h63.875c14.910156 5.925781 29.109375 13.492188 42.34375 22.554688 18.125 11.667969 34.246094 22.046875 59.796875 22.046875 6.5625-.039063 13.109375-.644532 19.570313-1.808594 27.785156-4.847656 48.914062-15.558594 67.550781-25.011719 18.800781-9.539062 35.0625-17.78125 53.597656-17.78125h43.515625v-13.9999998h-357.253906c-3.867188 0-7 3.1328128-7 6.9999998v169.402344c0 3.863281 3.132812 7 7 7zm253.804688-164.105469c-18.632813 9.449219-37.898438 19.199219-63.625 23.703125-32.34375 5.648438-47.867188-4.367187-69.378907-18.214843-5.398437-3.476563-11.144531-7.148438-17.476562-10.800782h33.691406c12.644531 10.03125 27.105469 17.523438 42.59375 22.0625l3.636719-13.519531c-7.238282-2.164063-14.25-5.023437-20.9375-8.535156h102.121094c-3.507813 1.726562-7.058594 3.496093-10.625 5.304687zm-223.148438 150.105469c65.601562-24.09375 154.714844-12.3125 183.914062-3.835937 4.765626 1.382812 10.292969 2.667968 16.402344 3.835937zm220.53125-29.855469c27.355469 4.355469 55.019531 6.46875 82.71875 6.316406 30.824219-.027343 61.605469-2.167968 92.132812-6.398437v29.925781h-39.199218c7.933594-1.585937 15.765625-3.65625 23.449218-6.195312l-4.460937-13.265625c-54.261719 18.25-148.703125 13.402343-187.355469 2.179687-39.042968-11.335937-142.871094-22.648437-211.472656 12.363282v-22.800782c82.054688-21.996094 152.050781-17.476562 244.1875-2.125zm129.429688-139.5468748h17.617187v13.9999998h-17.617187zm-99.417969 86.1914068-3.132813-13.644532c33.417969-7.664062 81.808594-15.425781 116.339844 5.539063l-7.265625 11.960937c-30.183594-18.320312-74.914063-10.972656-105.941406-3.855468zm-281.199219 312.304687h433.039062c3.867188 0 7-3.132813 7-7v-169.398437c0-3.867188-3.132812-7-7-7h-336.710937v14h194.28125c17.347656 14.246093 41.429687 21.449218 65.84375 21.449218 24.183594.390625 47.828125-7.140625 67.332031-21.449218h2.257813v20.796874c-39.289063 11.203126-101.257813 4.496094-166.800781-2.640624-81.863282-8.917969-174.207032-18.890626-252.25.929687v-19.085937h26.261718v-14h-33.253906c-3.867188 0-7 3.132812-7 7v169.398437c0 3.867187 3.132812 7 7 7zm317.628906-169.398437h78.167969c-25.128906 9.824218-53.039063 9.824218-78.167969 0zm-310.628906 155.398437v-13.523437c7.464844 5.441406 15.550781 9.980468 24.085938 13.523437zm419.039062-32.324219c-54.0625-1.167968-117.882812 27.34375-128.585937 32.324219h-100.730469c14.890625-3.734375 30.265625-7.921875 45.921875-12.191406 59.125-16.117188 125.832031-34.230469 183.394531-31.601563zm-91.21875 32.324219c25.042969-8.980469 60.371094-19.054687 91.21875-18.324219v18.324219zm-77.101562-123.339844c42.113281 4.589844 80.90625 8.800781 114.230469 8.800781 18.183593.351563 36.34375-1.515624 54.074219-5.5625v6.78125c-12.398438 1.179688-24.851563 1.691407-37.304688 1.53125l-.1875 14c.257812 0 1.734375.019532 4.035156.019532 7.035156 0 21.792969-.175782 33.457032-1.464844v10.128906c-26.109376-4.792968-52.675782-6.65625-79.199219-5.558594l.398437 14c26.40625-1.140624 52.855469.832032 78.800782 5.878907v16.980469c-59.652344-2.59375-127.167969 15.769531-187.078126 32.097656-48.484374 13.199218-94.285156 25.699218-129.441406 25.699218-67.601562 0-96.230468-25.453124-102.519531-32.054687v-28.300781c21.75 6.601562 44.414063 9.6875 67.136719 9.152344 40.90625 0 87.378906-6.980469 135.410156-14.1875 40.320312-6.058594 82-12.316407 121.769531-14.578126l-.800781-13.976562c-40.398438 2.292969-82.398438 8.605469-123.050781 14.707031-77.675781 11.664063-151.09375 22.609375-200.449219 3.953125v-20.105468c14.070312.824218 29.476562 1.199218 45.851562 1.199218 32.261719 0 67.941407-1.273437 102.878907-2.515625 34.753906-1.242187 70.691406-2.519531 102.488281-2.519531v-14.011719c-32.050781 0-68.109375 1.28125-102.988281 2.527344-52.671875 1.875-107.015625 3.808594-148.230469 1.328125v-12.476562c76.265625-20.402344 168.824219-10.394532 250.71875-1.472657zm-209.554688-32.058593v-14h34.082032v14zm127.554688 113.503906 3.429688 13.574218c-25.984376 7.195313-52.757813 11.171876-79.710938 11.832032-20.589844.285156-41.039062-3.425782-60.21875-10.925782l5.253906-12.980468c42.472656 17.167968 90.1875 8.878906 131.246094-1.5zm107.335938-23.253906 1.910156 13.871093c-26.652344 3.925781-53.058594 9.371094-79.085938 16.316407l-3.703125-13.488282c26.621094-7.105468 53.632813-12.683594 80.890625-16.699218zm0 0" fill="url(#linear0)"/></svg>